<svg width="165" height="66" viewBox="0 0 165 66" fill="none" xmlns="http://www.w3.org/2000/svg">
<ellipse cx="41.5" cy="32.9159" rx="36.2007" ry="22.0553" transform="rotate(-19.589 41.5 32.9159)" fill="white"/>
<path d="M20.1297 53.5353C12.2702 50.4183 10.6044 46.7513 9.77225 44.7344C9.77225 44.7344 7.00088 36.7586 14.3969 28.0494C20.5282 20.8294 29.774 16.1926 32.7567 14.8179C33.222 14.6035 33.7341 14.9424 33.6854 15.4524C33.1128 21.4532 26.3174 24.7032 22.9947 28.6911C18.4639 33.5499 18.7413 36.2085 19.3886 36.9419C20.0358 37.6753 24.5313 37.0336 30.4844 45.2845C34.61 51.0025 39.5176 52.7578 42.1418 53.2966C42.3586 53.3411 42.3755 53.8209 42.157 53.8555C37.7056 54.562 26.3549 56.0041 20.1297 53.5353Z" fill="#038853"/>
<path d="M63.3405 12.3043C71.2 15.4213 72.8658 19.0883 73.698 21.1052C73.698 21.1052 76.4693 29.081 69.0733 37.7902C62.942 45.0102 53.6962 49.647 50.7135 51.0217C50.2482 51.2361 49.7361 50.8972 49.7848 50.3872C50.3574 44.3864 57.1528 41.1364 60.4755 37.1485C65.0063 32.2897 64.7289 29.6311 64.0816 28.8977C63.4344 28.1643 58.9389 28.806 52.9858 20.5551C48.8602 14.8371 43.9526 13.0818 41.3284 12.543C41.1116 12.4985 41.0947 12.0187 41.3132 11.9841C45.7646 11.2776 57.1153 9.83547 63.3405 12.3043Z" fill="#D5A84C"/>
<rect x="38.3101" y="16.0342" width="2.92289" height="1.09608" rx="0.365362" fill="#0956A4"/>
<rect x="41.9639" y="17.678" width="2.92289" height="1.64413" rx="0.365362" fill="#0956A4"/>
<path d="M46.0161 20.6161C45.9954 20.3775 46.2058 20.1838 46.4418 20.2243L48.9097 20.6474C49.066 20.6742 49.1872 20.7988 49.2097 20.9558L49.3793 22.1436C49.4131 22.38 49.2147 22.5848 48.9773 22.5584L46.4555 22.2782C46.2824 22.259 46.1469 22.1202 46.1318 21.9467L46.0161 20.6161Z" fill="#0956A4"/>
<path d="M50.217 21.4539C50.2008 21.2104 50.4233 21.0198 50.6614 21.0731L52.2853 21.4369C52.4377 21.4711 52.5516 21.5984 52.5686 21.7538L52.6908 22.8721C52.7168 23.1096 52.5116 23.3077 52.2751 23.2734L50.6116 23.0318C50.4411 23.007 50.311 22.8664 50.2996 22.6945L50.217 21.4539Z" fill="#0956A4"/>
<rect x="37.7622" y="20.053" width="3.28825" height="2.00949" rx="0.365362" fill="#0956A4"/>
<rect x="41.9639" y="22.793" width="3.28825" height="3.28825" rx="0.365362" fill="#0956A4"/>
<rect x="37.5796" y="26.812" width="3.28825" height="3.28825" rx="0.365362" fill="#0956A4"/>
<path d="M33.0127 27.6065C33.0127 27.4159 33.1593 27.2573 33.3493 27.2423L36.0895 27.026C36.302 27.0092 36.4836 27.1771 36.4836 27.3902V29.9455C36.4836 30.1361 36.3371 30.2947 36.147 30.3097L33.4068 30.526C33.1944 30.5428 33.0127 30.3749 33.0127 30.1618V27.6065Z" fill="#0956A4"/>
<path d="M33.1948 23.5873C33.1948 23.3966 33.3414 23.238 33.5314 23.223L36.2716 23.0067C36.4841 22.9899 36.6658 23.1578 36.6658 23.3709V25.9262C36.6658 26.1168 36.5192 26.2754 36.3292 26.2904L33.5889 26.5067C33.3765 26.5235 33.1948 26.3556 33.1948 26.1425V23.5873Z" fill="#0956A4"/>
<path d="M29.9141 24.1199C29.9141 23.9328 30.0554 23.7759 30.2415 23.7565L32.0683 23.5658C32.2839 23.5433 32.4716 23.7124 32.4716 23.9292V26.3984C32.4716 26.5855 32.3303 26.7424 32.1442 26.7618L30.3174 26.9525C30.1017 26.975 29.9141 26.8059 29.9141 26.5891V24.1199Z" fill="#0956A4"/>
<rect x="41.9639" y="31.1963" width="3.65362" height="3.65362" rx="0.365362" fill="#0956A4"/>
<rect x="46.5308" y="31.1963" width="3.47094" height="3.47094" rx="0.365362" fill="#0956A4"/>
<rect x="37.5796" y="35.5808" width="3.47094" height="3.47094" rx="0.365362" fill="#0956A4"/>
<rect x="37.9448" y="43.9841" width="3.10557" height="2.00949" rx="0.365362" fill="#0956A4"/>
<rect x="38.4927" y="48.7336" width="2.55753" height="1.09608" rx="0.365362" fill="#0956A4"/>
<path d="M34.3672 46.5403C34.3285 46.3078 34.5167 46.1 34.7519 46.1157L36.7588 46.2495C36.9206 46.2603 37.056 46.3765 37.0912 46.5348L37.2916 47.4366C37.3444 47.6743 37.1544 47.8962 36.9114 47.8805L34.8545 47.7478C34.6851 47.7369 34.5456 47.6107 34.5177 47.4433L34.3672 46.5403Z" fill="#0956A4"/>
<rect x="41.9639" y="46.5417" width="2.92289" height="1.64413" rx="0.365362" fill="#0956A4"/>
<path d="M46.2625 43.8671C46.2817 43.7071 46.4036 43.5786 46.5624 43.5509L48.8499 43.1519C49.0858 43.1108 49.2969 43.3039 49.2768 43.5426L49.1618 44.9056C49.1482 45.0673 49.0296 45.2006 48.8706 45.233L46.5244 45.7099C46.2802 45.7596 46.0591 45.5556 46.0889 45.3082L46.2625 43.8671Z" fill="#0956A4"/>
<path d="M33.2188 39.8362C33.2061 39.6148 33.392 39.4332 33.6131 39.4511L36.2481 39.6648C36.4338 39.6799 36.5784 39.8323 36.5838 40.0185L36.6541 42.4797C36.6603 42.6975 36.4757 42.8723 36.2585 42.8542L33.6938 42.6405C33.5124 42.6254 33.3698 42.479 33.3594 42.2973L33.2188 39.8362Z" fill="#0956A4"/>
<rect x="41.9639" y="39.7822" width="3.28825" height="3.28825" rx="0.365362" fill="#0956A4"/>
<path d="M46.6122 36.0176C46.6178 35.8238 46.7737 35.6681 46.9676 35.6628L49.6153 35.5913C49.8251 35.5856 49.9965 35.7574 49.9903 35.9672L49.9202 38.3504C49.9147 38.5403 49.7645 38.6943 49.5748 38.7045L46.927 38.8476C46.7137 38.8592 46.536 38.686 46.5421 38.4724L46.6122 36.0176Z" fill="#0956A4"/>
<path d="M50.9794 35.6518C50.9837 35.4581 51.1385 35.3015 51.3321 35.2949L53.2685 35.2286C53.4784 35.2214 53.6511 35.3922 53.6463 35.6022L53.5909 37.9876C53.5865 38.1764 53.439 38.3308 53.2506 38.3437L51.3143 38.4763C51.0999 38.4909 50.9192 38.3183 50.9241 38.1035L50.9794 35.6518Z" fill="#0956A4"/>
<path d="M50.7124 39.474C50.7238 39.2862 50.876 39.1377 51.0641 39.131L52.8756 39.0663C53.0955 39.0585 53.2724 39.2454 53.2525 39.4645L53.0451 41.7456C53.0285 41.9287 52.8784 42.0708 52.6948 42.0776L50.9524 42.1422C50.7367 42.1502 50.5611 41.9704 50.5742 41.755L50.7124 39.474Z" fill="#0956A4"/>
<rect x="32.8296" y="31.1963" width="3.47094" height="3.47094" rx="0.365362" fill="#0956A4"/>
<rect x="24.4263" y="31.562" width="1.46145" height="2.74021" rx="0.365362" fill="#0956A4"/>
<path d="M26.6187 28.5785C26.6187 28.4019 26.7449 28.2506 26.9187 28.219L28.1974 27.9865C28.4217 27.9457 28.6281 28.118 28.6281 28.346V30.2382C28.6281 30.4209 28.4932 30.5755 28.3121 30.6002L27.0334 30.7745C26.814 30.8045 26.6187 30.6339 26.6187 30.4125V28.5785Z" fill="#0956A4"/>
<path d="M28.6279 37.2855C28.6279 37.4621 28.5017 37.6134 28.3279 37.645L27.0492 37.8775C26.8249 37.9183 26.6184 37.746 26.6184 37.518V35.6259C26.6184 35.4432 26.7534 35.2885 26.9344 35.2638L28.2132 35.0895C28.4326 35.0596 28.6279 35.2301 28.6279 35.4515V37.2855Z" fill="#0956A4"/>
<rect x="29.1763" y="31.3789" width="2.92289" height="3.10557" rx="0.365362" fill="#0956A4"/>
<rect x="33.0127" y="35.3982" width="3.47094" height="3.47094" rx="0.365362" fill="#0956A4"/>
<path d="M29.7794 39.3253C29.7511 39.092 29.9473 38.8931 30.181 38.9181L31.9928 39.1122C32.1619 39.1303 32.2961 39.2627 32.3166 39.4315L32.5917 41.7012C32.62 41.9345 32.4238 42.1335 32.1901 42.1084L30.3783 41.9143C30.2092 41.8962 30.075 41.7638 30.0545 41.595L29.7794 39.3253Z" fill="#0956A4"/>
<path d="M30.3562 43.1687C30.3135 42.9339 30.5037 42.7219 30.7417 42.7389L32.5468 42.8678C32.7132 42.8797 32.8504 43.0028 32.8802 43.1669L33.1106 44.4341C33.1533 44.6689 32.9631 44.8809 32.7251 44.8639L30.9201 44.735C30.7537 44.7231 30.6165 44.6001 30.5866 44.4359L30.3562 43.1687Z" fill="#0956A4"/>
<path d="M46.3481 23.3727C46.3481 23.1589 46.5308 22.9908 46.7438 23.0086L49.3201 23.2232C49.5015 23.2384 49.6441 23.3847 49.6545 23.5665L49.7952 26.0285C49.8078 26.2496 49.6224 26.431 49.4017 26.4136L46.6848 26.1991C46.4947 26.1841 46.3481 26.0255 46.3481 25.8348V23.3727Z" fill="#0956A4"/>
<path d="M46.5308 27.3919C46.5308 27.1782 46.7135 27.0101 46.9265 27.0278L49.5027 27.2425C49.6841 27.2577 49.8267 27.404 49.8371 27.5858L49.9778 30.0478C49.9904 30.2689 49.8051 30.4503 49.5843 30.4329L46.8674 30.2184C46.6773 30.2034 46.5308 30.0448 46.5308 29.8541V27.3919Z" fill="#0956A4"/>
<path d="M50.915 27.7661C50.915 27.5491 51.103 27.3799 51.3188 27.4027L53.1986 27.6011C53.3782 27.6201 53.517 27.7675 53.5252 27.948L53.6362 30.409C53.6463 30.6315 53.4565 30.8112 53.2349 30.789L51.244 30.5899C51.0573 30.5712 50.915 30.4141 50.915 30.2264V27.7661Z" fill="#0956A4"/>
<path d="M56.9438 28.8788C56.9438 28.656 57.1415 28.4851 57.3619 28.5173L58.0259 28.6141C58.201 28.6396 58.3326 28.7869 58.3384 28.9637L58.3912 30.5807C58.3985 30.807 58.2003 30.9855 57.976 30.9545L57.2592 30.8555C57.0785 30.8305 56.9438 30.676 56.9438 30.4936V28.8788Z" fill="#0956A4"/>
<path d="M54.021 24.8561C54.021 24.6347 54.2163 24.4641 54.4357 24.4941L55.6197 24.6555C55.7959 24.6795 55.9293 24.827 55.9355 25.0048L56.0155 27.2955C56.0233 27.5209 55.8272 27.6995 55.6035 27.6706L54.3395 27.5073C54.1574 27.4838 54.021 27.3286 54.021 27.145V24.8561Z" fill="#0956A4"/>
<path d="M54.5688 31.7975C54.5688 31.5761 54.7642 31.4055 54.9836 31.4355L56.1675 31.5969C56.3438 31.6209 56.4771 31.7684 56.4833 31.9462L56.5633 34.2369C56.5712 34.4623 56.375 34.6409 56.1514 34.612L54.8874 34.4487C54.7052 34.4252 54.5688 34.2701 54.5688 34.0864V31.7975Z" fill="#0956A4"/>
<path d="M56.9438 35.2726C56.9438 35.0498 57.1415 34.8789 57.3619 34.9111L58.0259 35.0079C58.201 35.0334 58.3326 35.1807 58.3384 35.3575L58.3912 36.9745C58.3985 37.2008 58.2003 37.3793 57.976 37.3483L57.2592 37.2493C57.0785 37.2243 56.9438 37.0698 56.9438 36.8874V35.2726Z" fill="#0956A4"/>
<path d="M98.1543 21.4545L94.4114 44H88.2906L92.0335 21.4545H98.1543ZM121.492 21.4545L117.749 44H112.641L106.476 32.1548H106.344L104.363 44H98.2421L101.985 21.4545H107.181L113.258 33.2557H113.434L115.371 21.4545H121.492ZM136.282 28.5C136.348 27.7734 136.172 27.2047 135.753 26.7937C135.335 26.3754 134.631 26.1662 133.64 26.1662C133.009 26.1662 132.48 26.2396 132.055 26.3864C131.636 26.5331 131.31 26.735 131.075 26.9918C130.847 27.2487 130.704 27.5459 130.645 27.8835C130.579 28.1477 130.583 28.3899 130.656 28.6101C130.737 28.8229 130.888 29.0174 131.108 29.1935C131.335 29.3697 131.633 29.5275 132 29.6669C132.374 29.8063 132.818 29.9311 133.332 30.0412L135.093 30.4375C136.297 30.7017 137.306 31.0503 138.12 31.4833C138.942 31.909 139.588 32.4154 140.058 33.0025C140.527 33.5896 140.836 34.2464 140.982 34.973C141.137 35.6996 141.14 36.4922 140.993 37.3509C140.744 38.8333 140.168 40.0883 139.265 41.1158C138.362 42.1432 137.185 42.9248 135.731 43.4606C134.278 43.9963 132.598 44.2642 130.69 44.2642C128.737 44.2642 127.079 43.9743 125.714 43.3945C124.356 42.8074 123.373 41.9121 122.763 40.7085C122.162 39.4975 122.015 37.9527 122.323 36.0739H128.136C128.047 36.7637 128.121 37.3435 128.356 37.8132C128.591 38.2829 128.969 38.6388 129.49 38.881C130.011 39.1232 130.66 39.2443 131.438 39.2443C132.099 39.2443 132.664 39.1636 133.133 39.0021C133.603 38.8407 133.974 38.6168 134.245 38.3306C134.517 38.0444 134.682 37.7178 134.741 37.3509C134.799 37.0133 134.741 36.7124 134.565 36.4482C134.388 36.1839 134.069 35.9454 133.607 35.7326C133.144 35.5198 132.51 35.3253 131.702 35.1491L129.545 34.6648C127.629 34.2244 126.183 33.4979 125.207 32.4851C124.231 31.4723 123.886 30.0852 124.172 28.3239C124.407 26.8854 124.998 25.6304 125.945 24.5589C126.899 23.4801 128.11 22.6435 129.578 22.049C131.053 21.4472 132.686 21.1463 134.476 21.1463C136.297 21.1463 137.819 21.4509 139.045 22.06C140.278 22.6692 141.162 23.5241 141.698 24.625C142.241 25.7259 142.388 27.0175 142.138 28.5H136.282ZM157.858 28.5C157.924 27.7734 157.748 27.2047 157.33 26.7937C156.912 26.3754 156.207 26.1662 155.216 26.1662C154.585 26.1662 154.057 26.2396 153.631 26.3864C153.213 26.5331 152.886 26.735 152.651 26.9918C152.424 27.2487 152.281 27.5459 152.222 27.8835C152.156 28.1477 152.16 28.3899 152.233 28.6101C152.314 28.8229 152.464 29.0174 152.684 29.1935C152.912 29.3697 153.209 29.5275 153.576 29.6669C153.95 29.8063 154.394 29.9311 154.908 30.0412L156.669 30.4375C157.873 30.7017 158.882 31.0503 159.697 31.4833C160.519 31.909 161.165 32.4154 161.634 33.0025C162.104 33.5896 162.412 34.2464 162.559 34.973C162.713 35.6996 162.717 36.4922 162.57 37.3509C162.32 38.8333 161.744 40.0883 160.842 41.1158C159.939 42.1432 158.761 42.9248 157.308 43.4606C155.855 43.9963 154.174 44.2642 152.266 44.2642C150.314 44.2642 148.655 43.9743 147.29 43.3945C145.932 42.8074 144.949 41.9121 144.34 40.7085C143.738 39.4975 143.591 37.9527 143.9 36.0739H149.712C149.624 36.7637 149.697 37.3435 149.932 37.8132C150.167 38.2829 150.545 38.6388 151.066 38.881C151.587 39.1232 152.237 39.2443 153.015 39.2443C153.675 39.2443 154.24 39.1636 154.71 39.0021C155.18 38.8407 155.55 38.6168 155.822 38.3306C156.093 38.0444 156.258 37.7178 156.317 37.3509C156.376 37.0133 156.317 36.7124 156.141 36.4482C155.965 36.1839 155.646 35.9454 155.183 35.7326C154.721 35.5198 154.086 35.3253 153.279 35.1491L151.121 34.6648C149.206 34.2244 147.76 33.4979 146.784 32.4851C145.808 31.4723 145.463 30.0852 145.749 28.3239C145.984 26.8854 146.575 25.6304 147.521 24.5589C148.475 23.4801 149.686 22.6435 151.154 22.049C152.629 21.4472 154.262 21.1463 156.053 21.1463C157.873 21.1463 159.396 21.4509 160.621 22.06C161.854 22.6692 162.739 23.5241 163.275 24.625C163.818 25.7259 163.964 27.0175 163.715 28.5H157.858Z" fill="white"/>
</svg>
